<?xml version="1.0" encoding="UTF-8"?> <svg xmlns="http://www.w3.org/2000/svg" width="149" height="50" viewBox="0 0 149 50" fill="none"> <path d="M22.1147 43.9012C31.2111 44.8009 39.6078 45.6314 43.9811 41.1328C38.873 48.9534 27.2752 50.2742 22.1147 49.957C15.9923 49.3514 19.3158 43.6243 22.1147 43.9012Z" fill="url(#paint0_linear_6351_135)"></path> <path d="M10.3076 24.2654C19.0465 18.1221 27.1301 19.9975 30.2497 21.9296C14.3661 5.59624 5.73029 11.3175 3.39783 16.2198C-2.28741 19.3342 -0.27589 31.7053 10.3076 24.2654Z" fill="url(#paint1_linear_6351_135)"></path> <path d="M16.0792 5.83733C12.6506 4.93761 13.4261 3.3285 14.2424 2.63641C23.6187 -2.139 29.0532 4.04943 30.5984 7.74057C27.9745 5.14524 20.365 6.96197 16.0792 5.83733Z" fill="url(#paint2_linear_6351_135)"></path> <path d="M41.3567 28.0707C38.2779 30.5622 31.7938 31.3005 28.9366 31.3581C49.4909 46.7571 47.7416 30.8391 47.8291 30.2335C47.9165 29.6279 45.2051 24.9563 41.3567 28.0707Z" fill="url(#paint3_linear_6351_135)"></path> <path d="M34.7094 15.6144C47.1644 23.6427 47.421 16.1912 45.9924 11.4619C49.4618 16.22 52.2024 26.9169 47.4793 28.2451C38.5578 30.7539 29.6364 20.286 24.1261 17.9502C5.6534 9.57595 0.568762 17.46 0.335527 22.4488C-1.41378 16.8256 3.9216 8.69354 10.6564 7.56889C17.3912 6.44425 19.1406 5.57914 34.7094 15.6144Z" fill="url(#paint4_linear_6351_135)"></path> <path d="M43.0159 7.91454C32.0956 -3.07225 18.8172 -0.361485 14.1523 2.72408C22.7589 -1.42848 30.34 7.36787 34.0944 11.029C40.3045 17.0848 47.7452 12.6726 43.0159 7.91454Z" fill="url(#paint5_linear_6351_135)"></path> <path d="M5.05787 31.2739C-0.30942 40.1926 9.57691 46.6441 14.5041 48.4032C4.18311 40.9635 14.5327 36.0275 19.1399 37.3295C21.5889 38.0216 31.7349 40.332 36.0207 40.3574C47.706 40.4266 48.7614 33.6962 47.8284 30.3223C46.1666 46.4132 13.8045 16.74 5.05787 31.2739Z" fill="url(#paint6_linear_6351_135)"></path> <path d="M70.36 35.39C68.3533 35.39 66.5683 34.97 65.005 34.13C63.465 33.29 62.24 32.1467 61.33 30.7C60.4433 29.23 60 27.5617 60 25.695C60 23.805 60.4433 22.1367 61.33 20.69C62.24 19.22 63.465 18.0767 65.005 17.26C66.5683 16.42 68.3533 16 70.36 16C72.3433 16 74.1167 16.42 75.68 17.26C77.2433 18.0767 78.4683 19.2083 79.355 20.655C80.2417 22.1017 80.685 23.7817 80.685 25.695C80.685 27.5617 80.2417 29.23 79.355 30.7C78.4683 32.1467 77.2433 33.29 75.68 34.13C74.1167 34.97 72.3433 35.39 70.36 35.39ZM70.36 30.91C71.27 30.91 72.0867 30.7 72.81 30.28C73.5333 29.86 74.105 29.265 74.525 28.495C74.945 27.7017 75.155 26.7683 75.155 25.695C75.155 24.5983 74.945 23.665 74.525 22.895C74.105 22.125 73.5333 21.53 72.81 21.11C72.0867 20.69 71.27 20.48 70.36 20.48C69.45 20.48 68.6333 20.69 67.91 21.11C67.1867 21.53 66.6033 22.125 66.16 22.895C65.74 23.665 65.53 24.5983 65.53 25.695C65.53 26.7683 65.74 27.7017 66.16 28.495C66.6033 29.265 67.1867 29.86 67.91 30.28C68.6333 30.7 69.45 30.91 70.36 30.91Z" fill="#282828"></path> <path d="M95.7796 16C97.2729 16 98.6029 16.3033 99.7696 16.91C100.96 17.4933 101.893 18.4033 102.57 19.64C103.246 20.8533 103.585 22.4167 103.585 24.33V35.11H98.1246V25.17C98.1246 23.6533 97.7862 22.5333 97.1096 21.81C96.4562 21.0867 95.5229 20.725 94.3096 20.725C93.4462 20.725 92.6646 20.9117 91.9646 21.285C91.2879 21.635 90.7512 22.1833 90.3546 22.93C89.9812 23.6767 89.7946 24.6333 89.7946 25.8V35.11H84.3346V16.28H89.5496V21.495L88.5696 19.92C89.2462 18.66 90.2146 17.6917 91.4746 17.015C92.7346 16.3383 94.1696 16 95.7796 16Z" fill="#282828"></path> <path d="M118.016 35.39C115.869 35.39 113.979 34.97 112.346 34.13C110.736 33.29 109.487 32.1467 108.601 30.7C107.714 29.23 107.271 27.5617 107.271 25.695C107.271 23.805 107.702 22.1367 108.566 20.69C109.452 19.22 110.654 18.0767 112.171 17.26C113.687 16.42 115.402 16 117.316 16C119.159 16 120.816 16.3967 122.286 17.19C123.779 17.96 124.957 19.08 125.821 20.55C126.684 21.9967 127.116 23.735 127.116 25.765C127.116 25.975 127.104 26.22 127.081 26.5C127.057 26.7567 127.034 27.0017 127.011 27.235H111.716V24.05H124.141L122.041 24.995C122.041 24.015 121.842 23.1633 121.446 22.44C121.049 21.7167 120.501 21.1567 119.801 20.76C119.101 20.34 118.284 20.13 117.351 20.13C116.417 20.13 115.589 20.34 114.866 20.76C114.166 21.1567 113.617 21.7283 113.221 22.475C112.824 23.1983 112.626 24.0617 112.626 25.065V25.905C112.626 26.9317 112.847 27.8417 113.291 28.635C113.757 29.405 114.399 30 115.216 30.42C116.056 30.8167 117.036 31.015 118.156 31.015C119.159 31.015 120.034 30.8633 120.781 30.56C121.551 30.2567 122.251 29.8017 122.881 29.195L125.786 32.345C124.922 33.325 123.837 34.0833 122.531 34.62C121.224 35.1333 119.719 35.39 118.016 35.39Z" fill="#282828"></path> <path d="M127.858 35.11L136.293 24.05L136.188 27.06L128.103 16.28H134.228L139.338 23.315L137.028 23.385L142.313 16.28H148.123L140.003 26.955V24.015L148.403 35.11H142.208L136.853 27.62L139.128 27.935L133.808 35.11H127.858Z" fill="#282828"></path> <defs> <linearGradient id="paint0_linear_6351_135" x1="30.0651" y1="42.3747" x2="32.1354" y2="50.6082" gradientUnits="userSpaceOnUse"> <stop stop-color="#4575DE"></stop> <stop offset="1" stop-color="#ADC2EF"></stop> </linearGradient> <linearGradient id="paint1_linear_6351_135" x1="0.412361" y1="21.3751" x2="28.834" y2="19.5734" gradientUnits="userSpaceOnUse"> <stop stop-color="#F3F2FA"></stop> <stop offset="1" stop-color="#8B8CA2"></stop> </linearGradient> <linearGradient id="paint2_linear_6351_135" x1="13.6819" y1="25.5018" x2="46.3157" y2="24.5139" gradientUnits="userSpaceOnUse"> <stop stop-color="#F3F2FA"></stop> <stop offset="1" stop-color="#8B8CA2"></stop> </linearGradient> <linearGradient id="paint3_linear_6351_135" x1="13.6819" y1="25.5018" x2="46.3157" y2="24.5139" gradientUnits="userSpaceOnUse"> <stop stop-color="#F3F2FA"></stop> <stop offset="1" stop-color="#8B8CA2"></stop> </linearGradient> <linearGradient id="paint4_linear_6351_135" x1="22.5208" y1="9.95571" x2="28.6152" y2="29.4961" gradientUnits="userSpaceOnUse"> <stop stop-color="#4575DE"></stop> <stop offset="1" stop-color="#ADC2EF"></stop> </linearGradient> <linearGradient id="paint5_linear_6351_135" x1="27.8272" y1="1.95731" x2="31.9385" y2="14.3959" gradientUnits="userSpaceOnUse"> <stop stop-color="#4575DE"></stop> <stop offset="1" stop-color="#ADC2EF"></stop> </linearGradient> <linearGradient id="paint6_linear_6351_135" x1="23.587" y1="30.112" x2="30.0259" y2="48.9067" gradientUnits="userSpaceOnUse"> <stop stop-color="#4575DE"></stop> <stop offset="1" stop-color="#ADC2EF"></stop> </linearGradient> </defs> </svg> 