<svg width="33" height="5" viewBox="0 0 33 5" fill="none" xmlns="http://www.w3.org/2000/svg">
<path d="M9.94974 0H11.2413L13.3092 4.45415H12.1512L11.7122 3.46151H9.4471L9.00172 4.45415H7.88191L9.94974 0ZM11.3495 2.62158L10.5987 0.948097H10.5796L9.82249 2.62158H11.3495Z" fill="black"/>
<path d="M14.0588 0H15.1213V3.5315H17.6663V4.45415H14.0588V0Z" fill="black"/>
<path d="M19.0987 0.922645H17.508V0H21.7582V0.922645H20.1676V4.45415H19.0987V0.922645Z" fill="black"/>
<path d="M22.5712 0H26.516V0.89083H23.6337V1.74984H25.8797V2.60886H23.6337V3.56332H26.5796V4.45415H22.5712V0Z" fill="black"/>
<path d="M27.6289 0H29.9831C30.3691 0 30.6999 0.0636307 30.9756 0.190892C31.2556 0.318153 31.4677 0.492077 31.6119 0.712664C31.7561 0.93325 31.8282 1.18353 31.8282 1.46351C31.8282 1.76469 31.7455 2.03194 31.5801 2.26525C31.4189 2.49432 31.1835 2.66613 30.8738 2.78066L32 4.45415H30.7911L29.7731 2.92701H28.6915V4.45415H27.6289V0ZM29.964 2.03618C30.21 2.03618 30.403 1.98528 30.543 1.88347C30.6872 1.77742 30.7593 1.63743 30.7593 1.46351C30.7593 1.28958 30.6872 1.15172 30.543 1.04991C30.403 0.943855 30.21 0.89083 29.964 0.89083H28.6915V2.03618H29.964Z" fill="black"/>
<path d="M1.87175 0.111849H0C0.0461495 0.170466 2.52183 4.34524 2.71697 4.55541C2.91211 4.76558 3.13727 4.75057 3.28738 4.55541C3.43749 4.36025 4.35316 2.6789 4.35316 2.6789C3.90691 2.8478 3.53225 2.72699 3.24782 2.26819C2.96339 1.80939 2.02751 0.249482 2.02751 0.249482C2.02751 0.249482 1.93576 0.121016 1.87175 0.111849Z" fill="black"/>
<path d="M4.48824 2.39368C4.77344 1.7932 4.8186 1.68812 4.99861 1.31281C5.17861 0.937513 5.53377 0.13754 5.55399 0.111849H4.38315C4.17302 0.577223 3.81276 1.34284 3.60261 1.77819C3.36053 2.53574 4.23305 2.46028 4.48824 2.39368Z" fill="black"/>
</svg>
