<svg width="264" height="40" viewBox="0 0 264 40" fill="none" xmlns="http://www.w3.org/2000/svg">
    <g clip-path="url(#clip0_4002_4293)">
        <path d="M20 0C25.3043 0 30.3914 2.10714 34.1421 5.85786C37.8929 9.60859 40 14.6957 40 20C40 25.3043 37.8929 30.3914 34.1421 34.1421C30.3914 37.8929 25.3043 40 20 40C14.6957 40 9.60859 37.8929 5.85786 34.1421C2.10714 30.3914 0 25.3043 0 20C0 14.6957 2.10714 9.60859 5.85786 5.85786C9.60859 2.10714 14.6957 0 20 0Z" fill="#7D52F4"/>
        <path d="M25.816 20.555C26.6 20.555 27.805 20.462 28.536 20.638C29.083 20.769 29.629 21.112 30.026 21.505C30.606 22.077 30.933 22.858 30.936 23.672C30.935 24.143 30.83 24.691 30.591 25.099C30.011 26.091 28.691 27.235 27.851 28.079L23.987 31.948C23.247 32.679 22.442 33.233 21.364 33.223C20.555 33.215 19.757 32.853 19.194 32.275C18.9063 31.9839 18.6795 31.6383 18.5268 31.2585C18.3742 30.8787 18.2988 30.4723 18.305 30.063C18.334 28.504 19.507 27.759 20.419 26.683C19.701 26.792 18.879 26.716 18.149 26.715C16.886 26.714 15.614 26.741 14.352 26.708C13.701 26.749 13.024 26.724 12.371 26.718C11.703 26.712 11.117 26.608 10.589 26.314C10.2896 26.1474 10.0222 25.929 9.799 25.669C9.64851 25.495 9.51927 25.3036 9.414 25.099C9.171 24.629 9.057 24.099 9.065 23.558C9.06955 23.1565 9.15414 22.7598 9.31382 22.3913C9.47351 22.0229 9.70509 21.6899 9.995 21.412C10.332 21.087 10.807 20.767 11.266 20.664C12.176 20.458 14.248 20.558 15.267 20.559C17.325 20.56 19.387 20.527 21.445 20.561L25.816 20.555ZM18.458 6.78002C19.2862 6.75372 20.091 7.05687 20.696 7.62302C21.276 8.16502 21.645 8.98102 21.667 9.77502C21.712 11.35 20.607 12.219 19.622 13.258L21.969 13.29L26.069 13.286C26.899 13.283 27.842 13.194 28.652 13.393C29.235 13.536 29.79 13.853 30.179 14.315C30.315 14.475 30.446 14.665 30.547 14.859L30.637 15.054C30.7222 15.2426 30.7904 15.4384 30.841 15.639C30.9017 15.887 30.9317 16.1374 30.931 16.39C30.9299 16.7505 30.8639 17.1079 30.736 17.445C30.451 18.208 29.923 18.805 29.177 19.141C28.7428 19.3356 28.2695 19.4277 27.794 19.41C27.209 19.475 26.596 19.448 26.007 19.448L23.193 19.444L14.796 19.439C14.255 19.454 13.71 19.444 13.168 19.446C11.961 19.449 10.974 19.446 10.033 18.586C9.427 18.032 9.103 17.264 9.068 16.449C9.026 15.504 9.358 14.779 9.99 14.096C10.528 13.515 11.11 12.964 11.672 12.406L13.933 10.142L15.618 8.45702C16.017 8.06002 16.414 7.62002 16.882 7.30302C17.3448 6.97898 17.8923 6.79721 18.457 6.78002" fill="white"/>
    </g>
    <path d="M60.5639 10.3636L65.6744 25.8196H65.8757L70.9766 10.3636H74.8885L67.9659 30H63.5746L56.6616 10.3636H60.5639ZM76.9889 30V10.3636H89.7602V13.3455H80.546V18.6765H89.0986V21.6584H80.546V27.0181H89.8369V30H76.9889ZM99.5574 30H92.9033V10.3636H99.6916C101.641 10.3636 103.316 10.7567 104.716 11.543C106.122 12.3228 107.202 13.4446 107.957 14.9084C108.711 16.3722 109.088 18.1236 109.088 20.1626C109.088 22.2081 108.708 23.9659 107.947 25.4361C107.193 26.9062 106.103 28.0344 104.677 28.8207C103.258 29.6069 101.552 30 99.5574 30ZM96.4604 26.9222H99.3848C100.753 26.9222 101.894 26.6729 102.808 26.1744C103.722 25.6694 104.409 24.9183 104.869 23.9212C105.329 22.9176 105.56 21.6648 105.56 20.1626C105.56 18.6605 105.329 17.4141 104.869 16.4233C104.409 15.4261 103.728 14.6815 102.827 14.1893C101.932 13.6907 100.82 13.4414 99.4903 13.4414H96.4604V26.9222ZM118.193 30V10.3636H130.964V13.3455H121.75V18.6765H130.303V21.6584H121.75V27.0181H131.041V30H118.193ZM137.08 10.3636L141.404 17.5547H141.557L145.901 10.3636H149.956L143.906 20.1818L150.052 30H145.929L141.557 22.8569H141.404L137.032 30H132.928L139.132 20.1818L133.005 10.3636H137.08ZM168.359 16.989H164.773C164.671 16.4009 164.482 15.88 164.207 15.4261C163.932 14.9659 163.59 14.576 163.181 14.2564C162.772 13.9368 162.306 13.6971 161.782 13.5373C161.264 13.3711 160.704 13.288 160.104 13.288C159.036 13.288 158.09 13.5565 157.266 14.0934C156.441 14.6239 155.795 15.4038 155.329 16.4329C154.862 17.4556 154.629 18.7053 154.629 20.1818C154.629 21.6839 154.862 22.9496 155.329 23.9787C155.802 25.0014 156.447 25.7749 157.266 26.299C158.09 26.8168 159.033 27.0756 160.094 27.0756C160.682 27.0756 161.232 26.9989 161.743 26.8455C162.261 26.6857 162.724 26.4524 163.133 26.1456C163.549 25.8388 163.897 25.4616 164.179 25.0142C164.466 24.5668 164.664 24.0554 164.773 23.4801L168.359 23.4993C168.225 24.4325 167.934 25.3082 167.486 26.1264C167.045 26.9446 166.467 27.6669 165.751 28.2933C165.035 28.9134 164.198 29.3991 163.239 29.7507C162.28 30.0959 161.216 30.2685 160.046 30.2685C158.32 30.2685 156.78 29.869 155.425 29.07C154.07 28.271 153.002 27.1172 152.222 25.6087C151.442 24.1001 151.052 22.2912 151.052 20.1818C151.052 18.0661 151.446 16.2571 152.232 14.755C153.018 13.2464 154.089 12.0927 155.444 11.2937C156.799 10.4947 158.333 10.0952 160.046 10.0952C161.139 10.0952 162.155 10.2486 163.095 10.5554C164.035 10.8622 164.872 11.3129 165.607 11.9073C166.342 12.4954 166.946 13.2177 167.419 14.0742C167.899 14.9244 168.212 15.896 168.359 16.989ZM171.13 30V10.3636H174.688V18.6765H183.787V10.3636H187.354V30H183.787V21.6584H174.688V30H171.13ZM193.258 30H189.461L196.374 10.3636H200.765L207.688 30H203.891L198.646 14.3906H198.493L193.258 30ZM193.383 22.3008H203.738V25.158H193.383V22.3008ZM225.925 10.3636V30H222.761L213.509 16.6246H213.346V30H209.788V10.3636H212.972L222.215 23.7486H222.387V10.3636H225.925ZM242.47 16.6342C242.31 16.1165 242.09 15.6531 241.808 15.244C241.533 14.8285 241.201 14.4737 240.811 14.1797C240.428 13.8857 239.987 13.6651 239.488 13.5181C238.989 13.3647 238.446 13.288 237.858 13.288C236.803 13.288 235.864 13.5533 235.039 14.0838C234.215 14.6143 233.566 15.3942 233.093 16.4233C232.626 17.446 232.393 18.6925 232.393 20.1626C232.393 21.6456 232.626 22.9016 233.093 23.9308C233.559 24.9599 234.208 25.7429 235.039 26.2798C235.87 26.8104 236.835 27.0756 237.935 27.0756C238.932 27.0756 239.795 26.8839 240.524 26.5004C241.259 26.1168 241.824 25.5735 242.221 24.8704C242.617 24.1609 242.815 23.3299 242.815 22.3775L243.62 22.5021H238.29V19.7216H246.257V22.0803C246.257 23.7614 245.899 25.2156 245.183 26.4428C244.467 27.6701 243.483 28.6161 242.23 29.2809C240.977 29.9393 239.539 30.2685 237.916 30.2685C236.107 30.2685 234.518 29.8626 233.15 29.0508C231.789 28.2326 230.725 27.0724 229.957 25.5703C229.197 24.0618 228.816 22.272 228.816 20.201C228.816 18.6158 229.04 17.1999 229.488 15.9535C229.941 14.707 230.574 13.6491 231.386 12.7798C232.198 11.9041 233.15 11.2393 234.243 10.7855C235.336 10.3253 236.525 10.0952 237.81 10.0952C238.897 10.0952 239.91 10.255 240.85 10.5746C241.789 10.8878 242.623 11.3352 243.352 11.9169C244.087 12.4986 244.691 13.1889 245.164 13.9879C245.637 14.7869 245.947 15.669 246.094 16.6342H242.47ZM249.211 30V10.3636H261.982V13.3455H252.768V18.6765H261.321V21.6584H252.768V27.0181H262.059V30H249.211Z" fill="#1F1F24"/>
    <defs>
        <clipPath id="clip0_4002_4293">
            <rect width="40" height="40" fill="white"/>
        </clipPath>
    </defs>
</svg>